<svg width="855.93958" height="630.06608" xmlns="http://www.w3.org/2000/svg" data-name="Layer 1">

 <g>
  <path id="svg_1" fill="#3f3d56" d="m763.40213,335.59071c-3.73,43.08 -22.51,84.71 -49.3,119.14q-1.68,2.16 -3.4,4.28q-3.87,4.77 -7.94,9.36q-4.98,5.655 -10.25,11.05005q-4.29,4.43994 -8.78,8.68994q-3.465,3.315 -7.01,6.5c-28.43,25.69 -61.09,46.89 -94.74,65.43005c-65.67,36.17 -137.65,63.56995 -212.52,67.56c-74.86,3.98 -153.01,-17.46 -207.91,-68.52c-73.99,-68.81 -94.63995,-183.58 -64.6,-280.05c19.98,-64.18 60.76,-122.24 116.26,-160.16c55.02,-37.59 124.43,-54.51 190.12,-43.44995c52.44,-31.87006 121.09,-32.48 178.1,-8.89c30.42,12.59 57.72,31.31 81.67,53.93a339.34337,339.34337 0 0 1 30.72,33.23q1.455,1.785 2.88,3.6q5.97,7.545 11.55,15.4q8.01,11.265 15.21,23.03c1.32,2.16 2.63,4.33 3.91,6.52c0.86,1.47 1.73,2.95 2.58,4.44a0.29776,0.29776 0 0 1 0.04,0.1c13.31,23.41 24.19,48.39 29.86005,74.5c1,4.62 1.84,9.26 2.49,13.94l0,0.01q0.855,5.955 1.29,11.97a176.97711,176.97711 0 0 1 -0.23005,28.38991z"/>
  <path id="svg_2" opacity="0.3" fill="#f0f0f0" d="m568.04365,402.71716l-148.46153,-123.67785l144.22794,128.63173a3.44161,3.44161 0 1 0 4.23359,-4.95386l0,-0.00002z"/>
  <circle id="svg_3" fill="#f2f2f2" r="89" cy="250.78071" cx="227.58212"/>
  <path id="svg_4" fill="#fff" d="m306.58212,244.78071a80.99369,80.99369 0 0 1 -81,81a81.57161,81.57161 0 0 1 -27.8,-4.9a81.05489,81.05489 0 1 1 108.8,-76.1z"/>
  <circle id="svg_5" fill="#e4e4e4" r="25" cy="217.78071" cx="211.58212"/>
  <path id="svg_6" fill="#f2f2f2" d="m303.42215,222.31068a25.00115,25.00115 0 0 1 -27.6,-41.08a81.05279,81.05279 0 0 1 27.6,41.08z"/>
  <circle id="svg_7" fill="#e4e4e4" r="9" cy="271.78071" cx="252.58212"/>
  <path id="svg_8" fill="#f2f2f2" d="m215.58212,322.78071a9.04581,9.04581 0 0 1 -0.31,2.34a79.52774,79.52774 0 0 1 -17.49,-4.24a9.00157,9.00157 0 0 1 17.8,1.9z"/>
  <path id="svg_9" fill="#f2f2f2" d="m162.58212,240.78071a18.002,18.002 0 0 1 -16.8,17.96a81.54773,81.54773 0 0 1 1.76,-35.71a18.00026,18.00026 0 0 1 15.04,17.75z"/>
  <circle id="svg_10" fill="#6c63ff" r="3.70234" cy="208.48305" cx="606.45653"/>
  <circle id="svg_11" fill="#f0f0f0" r="2.16307" cy="119.94851" cx="572.30231"/>
  <circle id="svg_12" fill="#f0f0f0" r="2.16307" cy="543.94851" cx="225.30231"/>
  <circle id="svg_13" fill="#f0f0f0" r="2.16307" cy="331.59402" cx="584.58144"/>
  <circle id="svg_14" fill="#6c63ff" r="3.70234" cy="350.48305" cx="305.45653"/>
  <circle id="svg_15" fill="#6c63ff" r="17.48305" cy="416.48305" cx="171.45653"/>
  <circle id="svg_16" fill="#f0f0f0" r="2.16307" cy="435.94851" cx="267.30231"/>
  <circle id="svg_17" fill="#f0f0f0" r="2.16307" cy="97.94851" cx="487.30231"/>
  <circle id="svg_18" fill="#f0f0f0" r="2.16307" cy="558.94851" cx="358.30231"/>
  <circle id="svg_19" fill="#f0f0f0" r="2.16307" cy="117.94851" cx="326.30231"/>
  <circle id="svg_20" fill="#f0f0f0" r="2.16307" cy="222.94851" cx="382.30231"/>
  <circle id="svg_21" fill="#f0f0f0" r="2.16307" cy="480.59402" cx="296.58144"/>
  <circle id="svg_22" fill="#f0f0f0" r="2.16307" cy="494.59402" cx="549.58144"/>
  <circle id="svg_23" fill="#f0f0f0" r="2.16307" cy="368.59402" cx="437.58144"/>
  <circle id="svg_24" fill="#f0f0f0" r="2.16307" cy="222.59402" cx="494.58144"/>
  <circle id="svg_25" fill="#ff6584" r="4.28889" cy="292.65473" cx="598.21204"/>
  <circle id="svg_26" fill="#ff6584" r="4.28889" cy="150.65473" cx="424.21204"/>
  <circle id="svg_27" fill="#ff6584" r="4.28889" cy="445.65473" cx="424.21204"/>
  <path id="svg_29" fill="#6c63ff" d="m718.65097,532.9311q-19.36816,0 -42.45654,-1.46386c-79.61377,-5.05567 -182.7378,-22.63282 -290.376,-49.49219c-107.6377,-26.85938 -206.93018,-59.79395 -279.58545,-92.73438c-35.39258,-16.04687 -62.55615,-31.23632 -80.73535,-45.14746c-19.24707,-14.72705 -27.666,-27.564 -25.02393,-38.15283c5.148,-20.62891 50.731,-25.14209 88.064,-25.29541l0.01269,3c-51.26806,0.21045 -81.51367,8.38672 -85.16552,23.022c-4.65186,18.64014 33.28662,47.74073 104.08691,79.84131c72.49561,32.86817 171.60547,65.73926 279.07324,92.55664c107.46729,26.81641 210.40137,44.36328 289.83985,49.40821c77.57861,4.92773 124.74316,-2.9375 129.39453,-21.57813c3.86181,-15.47656 -21.59815,-38.27539 -71.68946,-64.19824l1.37891,-2.66406c36.397,18.83593 78.64551,45.85156 73.22168,67.58886c-2.64258,10.58887 -16.10547,17.96485 -40.01514,21.92285c-13.6294,2.25583 -30.37012,3.38669 -50.02442,3.38669z"/>
  <path id="svg_40" fill="#6c63ff" d="m240.06405,569.35591c-35.59912,0.001 -68.69433,-1.22071 -98.32226,-3.68555c-38.72656,-3.22266 -69.41455,-8.40332 -91.21045,-15.39648c-23.07666,-7.40528 -35.31934,-16.667 -36.38818,-27.52832c-2.083,-21.15821 39.334,-40.72461 74.44531,-53.41309l1.01953,2.82227c-48.2168,17.42382 -73.957,35.28613 -72.47949,50.29785c1.88183,19.11914 47.39209,33.78125 124.86181,40.22754c79.3252,6.60058 183.71729,4.26172 293.94727,-6.58985c110.23,-10.84863 213.07568,-28.90625 289.59131,-50.8457c74.72607,-21.42578 116.50488,-44.67969 114.623,-63.79883c-1.5625,-15.874 -33.20264,-28.793 -89.0918,-36.3789l0.40332,-2.97266c40.60986,5.51172 89.47949,16.76172 91.67383,39.05762c1.06933,10.86132 -9.1333,22.332 -30.32276,34.09375c-20.01465,11.10937 -49.10351,22.17285 -86.45849,32.88281c-76.68506,21.98828 -179.71973,40.08105 -290.12451,50.94824c-69.25923,6.81643 -136.24507,10.2793 -196.16744,10.2793z"/>
  <circle id="svg_41" fill="#6c63ff" r="17.48305" cy="434.48305" cx="838.45653"/>
  <circle id="svg_42" fill="#3f3d56" r="17.48305" cy="17.48305" cx="331.45653"/>
  <circle id="svg_43" fill="#3f3d56" r="17.48305" cy="433.48305" cx="19.45653"/>
  <circle id="svg_44" fill="#ff6584" r="10.70234" cy="108.48305" cx="127.45653"/>
  <circle id="svg_45" fill="#ff6584" r="10.70234" cy="514.48305" cx="77.45653"/>
  <circle id="svg_46" fill="#ff6584" r="10.70234" cy="339.48305" cx="807.45653"/>
  <circle id="svg_47" fill="#3f3d56" r="17.48306" cy="598.48305" cx="646.45653"/>
  <circle id="svg_48" fill="#f0f0f0" r="2.16307" cy="480.59402" cx="296.58144"/>
  <circle id="svg_49" fill="#f0f0f0" r="2.16306" cy="450.59402" cx="640.58144"/>
  <circle id="svg_50" fill="#f0f0f0" r="2.16307" cy="330.59402" cx="686.58144"/>
 </g>
</svg>